<svg xmlns="http://www.w3.org/2000/svg" width="252" height="54" fill="none"><g clip-path="url(#a)"><path fill="#DB1C0A" fill-rule="evenodd" stroke="#DB1C0A" stroke-width=".41" d="M12.262 46.682v6.722h3.575v-6.722a4.75 4.75 0 0 1 4.749-4.748h13.442a4.75 4.75 0 0 1 4.748 4.748v6.722h3.575v-6.722a4.75 4.75 0 0 1 4.749-4.748h6.721v-3.575H47.1a4.75 4.75 0 0 1-4.749-4.749V20.168A4.75 4.75 0 0 1 47.1 15.42h6.721v-3.575H47.1a4.75 4.75 0 0 1-4.749-4.749V.37h-3.575v6.721a4.75 4.75 0 0 1-4.748 4.749H20.586a4.75 4.75 0 0 1-4.749-4.749V.371h-3.575v6.72c0 2.6-2.17 4.749-4.763 4.749H.792v3.575h6.722a4.75 4.75 0 0 1 4.748 4.748v13.443a4.75 4.75 0 0 1-4.748 4.748H.792v3.575h6.722c2.591 0 4.748 2.164 4.748 4.753Zm26.52-26.514c0-2.6-2.17-4.748-4.764-4.748H20.59a4.75 4.75 0 0 0-4.748 4.748V33.61a4.75 4.75 0 0 0 4.748 4.75h13.443a4.75 4.75 0 0 0 4.748-4.75z" clip-rule="evenodd"/></g><path fill="#0D0100" d="M73.552 42.5V13.821h4.711v28.677h-4.71Zm18.231 0V13.821h4.711v28.677h-4.71ZM76.79 29.8v-4.302h16.018v4.301H76.79Zm33.549 13.11q-2.662 0-4.834-1.353-2.13-1.352-3.4-3.646-1.23-2.335-1.229-5.203 0-2.909 1.229-5.203 1.27-2.335 3.4-3.687 2.172-1.393 4.834-1.393 2.253 0 3.974.983a7.15 7.15 0 0 1 2.786 2.622q1.024 1.68 1.024 3.81v5.654q0 2.13-1.024 3.81-.982 1.68-2.745 2.663-1.762.942-4.015.942Zm.738-4.261q2.499 0 4.015-1.68 1.556-1.68 1.556-4.302 0-1.761-.696-3.114a5 5 0 0 0-1.967-2.089q-1.229-.778-2.908-.778-1.639 0-2.909.778-1.229.738-1.967 2.09-.696 1.351-.696 3.113t.696 3.114q.738 1.352 1.967 2.13 1.27.737 2.909.737Zm5.285 3.85v-5.284l.778-4.794-.778-4.752v-4.834h4.506v19.664zm22.986 0V31.151q0-1.966-1.27-3.236-1.229-1.27-3.196-1.27-1.31 0-2.335.573a4.1 4.1 0 0 0-1.597 1.598q-.574 1.024-.574 2.335l-1.762-.983q0-2.253.984-3.974a7.06 7.06 0 0 1 2.703-2.745q1.763-1.024 3.933-1.024 2.213 0 3.933 1.147a7.9 7.9 0 0 1 2.704 2.909q.984 1.761.984 3.687v12.331zm-13.479 0V22.835h4.507v19.664zm30.8.41q-2.663 0-4.835-1.352-2.13-1.352-3.4-3.646-1.229-2.335-1.229-5.203 0-2.909 1.229-5.203 1.27-2.335 3.4-3.687 2.172-1.393 4.835-1.393 2.252 0 3.974.983a7.15 7.15 0 0 1 2.785 2.622q1.025 1.68 1.025 3.81v5.654q0 2.13-1.025 3.81-.983 1.68-2.744 2.663-1.762.942-4.015.942m.737-4.26q1.68 0 2.909-.738a5.3 5.3 0 0 0 1.966-2.13q.697-1.353.697-3.114c0-1.761-.232-2.212-.697-3.114a5 5 0 0 0-1.966-2.089q-1.23-.778-2.909-.778-1.638 0-2.909.778-1.229.738-1.966 2.09-.696 1.351-.697 3.113 0 1.762.697 3.114.737 1.352 1.966 2.13 1.27.737 2.909.737Zm9.792 3.85h-4.507v-5.284l.778-4.794-.778-4.752V13.002h4.507zm18.561.41q-2.949 0-5.571-1.147a14.5 14.5 0 0 1-4.589-3.154 15.7 15.7 0 0 1-3.113-4.712q-1.107-2.704-1.106-5.776 0-3.073 1.106-5.736a15.2 15.2 0 0 1 3.113-4.67 14 14 0 0 1 4.671-3.155q2.703-1.147 5.817-1.147 3.4 0 6.309 1.311t4.876 3.728l-3.196 3.196q-1.27-1.803-3.4-2.745-2.131-.983-4.589-.983-2.95 0-5.203 1.31-2.212 1.27-3.441 3.565-1.23 2.295-1.229 5.326t1.229 5.366q1.27 2.295 3.4 3.606t4.834 1.31q2.868 0 4.917-1.023a7.33 7.33 0 0 0 3.195-3.114q1.106-2.09 1.106-5.121l2.95 2.13h-12.249v-4.302h14.175v.656q0 5.122-1.844 8.521-1.803 3.4-4.957 5.08t-7.211 1.68m18.086-.41V22.835h4.507v19.664zm4.507-10.938-1.557-.778q0-3.729 1.639-6.023 1.68-2.335 5.039-2.335 1.475 0 2.663.533 1.188.532 2.212 1.72l-2.95 3.032a3.1 3.1 0 0 0-1.188-.82q-.656-.245-1.515-.245-1.886 0-3.114 1.188-1.229 1.188-1.229 3.728m12.218 10.938V22.835h4.506v19.664zm2.253-23.27q-1.147 0-1.926-.778-.737-.778-.737-1.925t.737-1.926q.779-.778 1.926-.778 1.188 0 1.925.778t.738 1.926q0 1.146-.738 1.925-.737.779-1.925.779Zm15.542 23.68q-2.662 0-4.834-1.352-2.13-1.352-3.4-3.646-1.23-2.335-1.229-5.203 0-2.909 1.229-5.203 1.27-2.335 3.4-3.687 2.172-1.393 4.834-1.393 2.254 0 3.974.983a7.15 7.15 0 0 1 2.786 2.622q1.024 1.68 1.024 3.81v5.654q0 2.13-1.024 3.81-.983 1.68-2.745 2.663-1.76.942-4.015.942m.738-4.26q1.68 0 2.909-.738a5.3 5.3 0 0 0 1.966-2.13q.696-1.353.696-3.114c0-1.761-.232-2.212-.696-3.114a5 5 0 0 0-1.966-2.089q-1.23-.778-2.909-.778-1.639 0-2.909.778-1.229.738-1.966 2.09-.697 1.351-.697 3.113t.697 3.114q.737 1.352 1.966 2.13 1.27.737 2.909.737Zm9.791 3.85h-4.506v-5.284l.778-4.794-.778-4.752V13.002h4.506z"/><defs><clipPath id="a"><path fill="#fff" d="M.792.37h53.26v53.26H.791z"/></clipPath></defs></svg>